<?xml version="1.0" encoding="utf-8"?>
<!-- Generator: Adobe Illustrator 23.0.1, SVG Export Plug-In . SVG Version: 6.00 Build 0)  -->
<svg version="1.1" id="Layer_1" xmlns="http://www.w3.org/2000/svg" xmlns:xlink="http://www.w3.org/1999/xlink" x="0px" y="0px"
	 viewBox="0 0 131.3 139" style="enable-background:new 0 0 131.3 139;" xml:space="preserve">
<style type="text/css">
	.st0{fill:#005844;}
	.st1{fill:#FF7C76;}
</style>
<g>
	<path class="st0" d="M65.7,137.5c-15.7,0-30.4-6.1-41.5-17.2c-0.8-0.8-0.8-2.2,0-3c0.8-0.8,2.2-0.8,3,0c10.3,10.3,24,16,38.5,16
		s28.2-5.7,38.5-16c0.8-0.8,2.2-0.8,3,0c0.8,0.8,0.8,2.2,0,3C96.1,131.4,81.4,137.5,65.7,137.5z"/>
	<path class="st0" d="M128.7,51.3c-0.2-0.7-0.8-1.3-1.5-1.5c-12.5-3.3-25.8,0.3-34.9,9.3c-8.8,8.8-12.4,21.6-9.6,33.6l-14.9,14.9
		v-44c10.5-6.6,17-18.2,17-30.6c0-12.8-6.9-24.8-18.1-31.3c-0.7-0.4-1.5-0.4-2.1,0C53.4,8.2,46.5,20.2,46.5,33.1
		c0,12.4,6.5,24,17,30.6v44L48.6,92.7c2.8-12.1-0.8-24.9-9.6-33.6C30,50,16.6,46.4,4.1,49.8c-0.7,0.2-1.3,0.8-1.5,1.5
		C-0.7,63.7,2.9,77.1,12,86.2c6.8,6.8,16.1,10.6,25.6,10.6c2.7,0,5.4-0.4,8-1l17.9,17.9v13.4h4.3v-13.4l17.9-17.9c2.7,0.6,5.4,1,8,1
		c9.5,0,18.8-3.7,25.6-10.6C128.4,77.1,132,63.7,128.7,51.3z M50.8,33.1c0-10.9,5.7-21.1,14.9-27c9.2,5.8,14.9,16,14.9,27
		c0,10-4.8,19.4-12.8,25.4V33.1c0-1.2-1-2.1-2.1-2.1s-2.1,1-2.1,2.1v25.4C55.6,52.5,50.8,43.1,50.8,33.1z M15,83.2
		C7.3,75.4,4,64.2,6.4,53.6c10.6-2.4,21.9,0.8,29.6,8.5c7.1,7.1,10.3,17.1,8.9,27l-18-18c-0.8-0.8-2.2-0.8-3,0c-0.8,0.8-0.8,2.2,0,3
		l18,18C32.1,93.5,22.1,90.2,15,83.2z M116.4,83.2c-7.1,7.1-17.1,10.3-27,8.9l18-18c0.8-0.8,0.8-2.2,0-3c-0.8-0.8-2.2-0.8-3,0
		l-18,18c-1.4-9.8,1.9-19.9,8.9-27c7.7-7.7,18.9-10.9,29.6-8.5C127.3,64.2,124.1,75.4,116.4,83.2z"/>
</g>
</svg>
