<?xml version="1.0" encoding="utf-8"?>
<!-- Generator: Adobe Illustrator 23.0.1, SVG Export Plug-In . SVG Version: 6.00 Build 0)  -->
<svg version="1.1" id="Layer_1" xmlns="http://www.w3.org/2000/svg" xmlns:xlink="http://www.w3.org/1999/xlink" x="0px" y="0px"
	 viewBox="0 0 112.46 112.91" style="enable-background:new 0 0 112.46 112.91;" xml:space="preserve">
<style type="text/css">
	.st0{fill:#125140;}
</style>
<g>
	<path class="st0" d="M5.14,65.01c0.78-0.15,1.58,0.39,1.73,1.16c0.15,0.78-0.39,1.58-1.17,1.73c-0.78,0.15-1.58-0.39-1.73-1.17
		C3.83,65.96,4.37,65.16,5.14,65.01z"/>
	<path class="st0" d="M7.13,82.81l1.43,2.33l4.33-2.67l-1.34-2.17l0.73-0.45l1.86,3.01l-5.06,3.12l1.44,2.33l-0.73,0.45l-3.39-5.5
		L7.13,82.81z M15.18,80.39c0.49-0.3,1.13-0.19,1.46,0.35c0.33,0.54,0.14,1.16-0.35,1.46c-0.49,0.3-1.13,0.19-1.46-0.35
		C14.5,81.31,14.69,80.69,15.18,80.39z"/>
	<path class="st0" d="M11.91,90.32l1.02,1.14l3.8-3.39l-1.02-1.14l0.64-0.57l1.68,1.88l-0.6,0.54c0.38-0.04,1.44,0.01,2.2,0.85
		c0.96,1.08,0.79,2.37-0.54,3.56l-2.57,2.29l1.02,1.14l-0.64,0.57l-2.54-2.84L15,93.78l0.86,0.96l2.52-2.25
		c0.93-0.83,1.17-1.67,0.57-2.34c-0.73-0.82-1.87-0.67-2.66-0.36l-2.7,2.41l0.86,0.96l-0.64,0.57l-2.54-2.84L11.91,90.32z"/>
	<path class="st0" d="M21.73,98.28l2.26-2.89l-1.7-1.33l0.53-0.68l1.7,1.33l1.61-2.06l0.78,0.61l-1.61,2.06l3.07,2.4l-0.53,0.68
		L24.77,96l-2.26,2.89c-0.65,0.83-0.71,1.58-0.04,2.1c0.99,0.78,2.08-0.03,2.87-0.9l0.67,0.6c-1.37,1.6-2.78,1.99-4.07,0.99
		C20.8,100.77,20.73,99.56,21.73,98.28z"/>
	<path class="st0" d="M28.64,102.89l1.6-3.05l-1.35-0.71l0.4-0.76l2.23,1.17l-1.97,3.75c-0.58,1.1-0.51,1.97,0.29,2.39
		c0.97,0.51,2.53-0.44,3.05-1.42l1.25-2.37L33,101.3l0.4-0.76l2.02,1.06l-2.77,5.26l1.35,0.71l-0.4,0.76l-2.23-1.17l0.5-0.95
		c-0.34,0.17-1.48,0.74-2.49,0.21C28.1,105.74,27.81,104.47,28.64,102.89z"/>
	<path class="st0" d="M36.33,108.45l2.61,0.82l1.52-4.85l-2.43-0.76l0.26-0.82l3.38,1.06l-1.78,5.66l2.61,0.82l-0.26,0.82
		l-6.16-1.93L36.33,108.45z M40.82,101.35c0.17-0.55,0.73-0.88,1.33-0.69c0.6,0.19,0.87,0.78,0.69,1.33s-0.73,0.88-1.33,0.69
		C40.91,102.49,40.65,101.9,40.82,101.35z"/>
	<path class="st0" d="M46.12,108.59c0.24-1.89,1.82-3.47,3.92-3.21c1.55,0.2,2.48,1.33,2.36,2.26c-0.08,0.66-0.54,1-1.04,0.94
		c-0.49-0.06-0.87-0.49-0.81-0.98c0.05-0.39,0.35-0.67,0.61-0.75c-0.21-0.27-0.51-0.52-1.23-0.61c-1.2-0.15-2.6,0.72-2.82,2.48
		c-0.22,1.75,0.92,2.98,2.12,3.12c1.25,0.16,2.01-0.64,2.46-1.43l0.75,0.39c-0.79,1.55-2.23,2.01-3.32,1.88
		C47.02,112.4,45.88,110.48,46.12,108.59z"/>
	<path class="st0" d="M55.73,112.06l2.73-0.14l-0.26-5.07l-2.54,0.13l-0.04-0.86l3.53-0.18l0.3,5.93l2.73-0.14l0.04,0.86l-6.45,0.33
		L55.73,112.06z M57.46,103.84c-0.03-0.58,0.37-1.08,1-1.11c0.63-0.03,1.08,0.43,1.11,1c0.03,0.58-0.37,1.08-1,1.11
		C57.95,104.87,57.49,104.41,57.46,103.84z"/>
	<path class="st0" d="M64.85,108.8c-0.47-2.02,0.59-3.91,2.48-4.35c1.89-0.44,3.68,0.78,4.15,2.8c0.47,2.02-0.59,3.91-2.48,4.35
		C67.11,112.05,65.32,110.83,64.85,108.8z M70.51,107.48c-0.32-1.37-1.52-2.54-2.99-2.19c-1.47,0.35-2.03,1.92-1.71,3.29
		c0.32,1.37,1.52,2.54,2.99,2.19C70.28,110.42,70.83,108.85,70.51,107.48z M67.11,101.88c0.12-0.52,0.64-0.75,1.07-0.5
		c0.45,0.27,0.46,0.84,0.12,1.21l-0.84,0.9l-0.78,0.18L67.11,101.88z"/>
	<path class="st0" d="M74.27,109.08l1.4-0.61l-2.03-4.67l-1.4,0.61l-0.34-0.79l2.31-1l0.32,0.74c0.09-0.37,0.46-1.37,1.5-1.82
		c1.33-0.58,2.5,0,3.21,1.63l1.37,3.16l1.4-0.61l0.34,0.79l-3.49,1.52l-0.34-0.79l1.18-0.51l-1.35-3.1
		c-0.5-1.14-1.22-1.63-2.04-1.27c-1.01,0.44-1.22,1.57-1.17,2.41l1.44,3.32l1.18-0.51l0.34,0.79l-3.49,1.52L74.27,109.08z"/>
	<path class="st0" d="M90.78,94.71c-0.55-0.57-0.53-1.53,0.04-2.08c0.57-0.55,1.54-0.53,2.08,0.04c0.55,0.57,0.53,1.53-0.04,2.08
		C92.3,95.3,91.33,95.28,90.78,94.71z"/>
	<path class="st0" d="M106.76,85.66l0.83-1.73l-7.18-3.44l-0.75,1.57l-0.77-0.37l1.18-2.47l0.77,0.37
		c-0.37-0.73-0.49-1.56-0.07-2.43c0.74-1.53,2.62-2.09,4.64-1.12c2.2,1.06,2.56,3.06,1.91,4.41c-0.38,0.8-1.21,1.35-1.88,1.34
		l2.57,1.23l0.92-1.92l0.77,0.37l-2.18,4.54L106.76,85.66z M104.95,76.92c-1.27-0.61-2.9-0.44-3.45,0.72
		c-0.46,0.95,0.01,1.88,0.7,2.6l1.93,0.93c0.87,0.11,1.96-0.12,2.43-1.09C107.14,78.87,106.19,77.52,104.95,76.92z"/>
	<path class="st0" d="M108.54,74.79l0.59-2.16l-4.91-1.35l-0.53,1.95l-0.83-0.23l0.8-2.91l0.84,0.23c-0.59-0.83-0.74-1.58-0.51-2.42
		c0.34-1.24,1.49-1.88,2.52-1.6c0.7,0.19,0.94,0.77,0.81,1.25c-0.12,0.44-0.58,0.73-1.07,0.6c-0.41-0.11-0.65-0.47-0.67-0.77
		c-0.36,0.1-0.65,0.28-0.78,0.77c-0.3,1.09,0.52,2.11,0.99,2.52l3.59,0.98l0.67-2.44l0.83,0.23l-1.52,5.56L108.54,74.79z"/>
	<path class="st0" d="M108.43,64.66c-2.07-0.18-3.53-1.78-3.36-3.72c0.17-1.94,1.89-3.25,3.96-3.07c2.07,0.18,3.53,1.78,3.36,3.72
		C112.22,63.53,110.5,64.84,108.43,64.66z M108.95,58.86c-1.4-0.12-2.88,0.64-3.02,2.15c-0.13,1.51,1.19,2.53,2.59,2.65
		c1.4,0.12,2.88-0.64,3.02-2.15C111.67,60.01,110.35,58.99,108.95,58.86z"/>
	<path class="st0" d="M109.07,55.53c-2.36,0.21-3.67-1.27-3.8-2.77c-0.08-0.92,0.2-1.56,0.79-2.16l-2.58,0.23l0.19,2.15l-0.85,0.08
		l-0.28-3.14l8.52-0.76l-0.16-1.82l0.85-0.08l0.25,2.8l-0.89,0.08c0.6,0.23,1.25,0.95,1.35,1.99
		C112.6,53.84,111.3,55.33,109.07,55.53z M109.81,50.27l-2.16,0.19c-0.84,0.36-1.63,1.06-1.53,2.11c0.13,1.43,1.57,2.08,2.91,1.96
		c1.4-0.12,2.5-0.81,2.59-2.05C111.67,51.56,111.13,50.64,109.81,50.27z"/>
	<path class="st0" d="M108.65,44.89l-3.32,0.91l0.4,1.47l-0.83,0.23l-0.67-2.43l4.08-1.12c1.2-0.33,1.79-0.98,1.55-1.84
		c-0.29-1.06-2.05-1.55-3.12-1.26l-2.58,0.71l0.34,1.24l-0.83,0.23l-0.6-2.2l5.74-1.57l-0.4-1.47l0.83-0.23l0.67,2.43l-1.03,0.28
		c0.36,0.14,1.55,0.58,1.85,1.68C111.1,43.34,110.37,44.41,108.65,44.89z"/>
	<path class="st0" d="M105.18,36.62c-1.72,0.82-3.9,0.36-4.82-1.55c-0.68-1.41-0.23-2.8,0.62-3.21c0.6-0.29,1.13-0.08,1.35,0.36
		c0.21,0.45,0.06,1-0.38,1.21c-0.35,0.17-0.76,0.07-0.96-0.11c-0.11,0.32-0.16,0.72,0.15,1.37c0.52,1.09,2.02,1.8,3.62,1.03
		c1.59-0.77,2-2.39,1.47-3.47c-0.54-1.14-1.63-1.35-2.54-1.29l-0.08-0.84c1.73-0.18,2.9,0.78,3.38,1.77
		C107.9,33.8,106.89,35.8,105.18,36.62z"/>
	<path class="st0" d="M100.67,26.02l-2.97,2.15l1.27,1.75l-0.69,0.5L97,28.68l-2.12,1.53l-0.58-0.8l2.12-1.53l-2.29-3.16l0.69-0.5
		l2.29,3.16l2.97-2.15c0.86-0.62,1.11-1.32,0.62-2c-0.74-1.02-2-0.55-3,0.08l-0.48-0.76c1.76-1.16,3.22-1.14,4.18,0.18
		C102.25,23.89,101.98,25.07,100.67,26.02z"/>
	<path class="st0" d="M95.2,20.8c-1.44,1.49-3.6,1.63-5,0.28c-1.4-1.35-1.34-3.51,0.1-5s3.6-1.63,5-0.28
		C96.7,17.14,96.64,19.31,95.2,20.8z M91.02,16.77c-0.98,1.01-1.31,2.65-0.22,3.7c1.09,1.05,2.71,0.66,3.69-0.35
		c0.98-1.01,1.3-2.65,0.21-3.7C93.61,15.36,91.99,15.75,91.02,16.77z"/>
	<path class="st0" d="M77.96,9.78c-0.31,0.73-1.21,1.08-1.94,0.76c-0.72-0.32-1.08-1.21-0.76-1.94s1.21-1.08,1.94-0.76
		C77.92,8.16,78.28,9.06,77.96,9.78z"/>
	<path class="st0" d="M60.27,2.65l-0.19,3.67l2.15,0.11l-0.04,0.86l-2.15-0.11L59.9,9.78l-0.99-0.05l0.13-2.61l-3.89-0.2l0.04-0.86
		l3.89,0.2l0.19-3.67c0.05-1.06-0.33-1.69-1.17-1.74c-1.26-0.06-1.69,1.21-1.83,2.39l-0.89-0.1c0.2-2.1,1.13-3.23,2.76-3.15
		C59.6,0.08,60.35,1.03,60.27,2.65z"/>
	<path class="st0" d="M52.73,1.07l-2.22,0.28l0.64,5.05l2.01-0.25L53.26,7l-2.99,0.38l-0.11-0.86c-0.54,0.86-1.17,1.28-2.04,1.39
		c-1.28,0.16-2.31-0.65-2.44-1.72c-0.09-0.72,0.35-1.17,0.84-1.23c0.45-0.06,0.9,0.25,0.96,0.76c0.05,0.43-0.19,0.78-0.45,0.91
		c0.23,0.3,0.51,0.49,1.01,0.43c1.12-0.14,1.75-1.29,1.95-1.88l-0.47-3.69l-2.51,0.32l-0.11-0.85l5.71-0.72L52.73,1.07z"/>
	<path class="st0" d="M42.9,3.67c0.4,1.25-0.46,1.99-1.55,2.44c-0.78,0.33-1.82,0.74-2.38,1.4l0.11,0.36
		c0.21,0.68,0.79,1.26,1.96,0.88c0.74-0.23,1.13-0.65,1.22-0.92C42,7.77,41.85,7.57,41.78,7.32c-0.13-0.41,0.12-0.8,0.52-0.92
		c0.67-0.21,1.03,0.27,1.15,0.66c0.26,0.82-0.53,1.99-2.15,2.5c-2.12,0.67-2.9-0.54-3.23-1.6l-0.73-2.3
		c-0.34-1.07-1.1-1.17-1.89-1.05l-0.12-0.88c0.6-0.13,1.66-0.3,2.35,0.47c0.5-0.82,1-1.52,2.08-1.86
		C41.14,1.92,42.48,2.34,42.9,3.67z M38.19,5.09l0.52,1.59c0.56-0.51,1.37-0.92,1.96-1.19c0.77-0.36,1.53-0.72,1.26-1.56
		c-0.24-0.75-0.97-1.06-1.9-0.76C39.2,3.43,38.41,4.1,38.19,5.09z"/>
	<path class="st0" d="M34.77,7.96c1.1,2.1,0.24,3.87-1.09,4.57c-0.82,0.43-1.52,0.42-2.29,0.1l1.2,2.29l1.91-1l0.4,0.76l-2.79,1.47
		l-3.98-7.56l-1.61,0.85l-0.4-0.76l2.49-1.31l0.42,0.79C29,7.51,29.42,6.63,30.34,6.14C31.85,5.35,33.72,5.98,34.77,7.96z
		 M29.63,9.3l1.01,1.92c0.65,0.64,1.61,1.09,2.54,0.6c1.27-0.67,1.31-2.25,0.69-3.44c-0.66-1.24-1.71-1.99-2.89-1.6
		C30.1,7.08,29.46,7.94,29.63,9.3z"/>
	<path class="st0" d="M24.51,10.83l-2.15,1.68l3.13,4l2.01-1.57l0.53,0.68l-2.79,2.18l-3.66-4.68l-2.15,1.68l-0.53-0.68l5.09-3.98
		L24.51,10.83z M27.81,18.56c0.36,0.45,0.31,1.1-0.18,1.49s-1.13,0.27-1.49-0.18c-0.36-0.45-0.31-1.1,0.18-1.49
		C26.82,17.99,27.46,18.11,27.81,18.56z"/>
	<path class="st0" d="M18.8,18.86c1.42,1.27,1.83,3.47,0.42,5.04c-1.04,1.17-2.5,1.29-3.2,0.66c-0.5-0.45-0.51-1.01-0.18-1.38
		c0.33-0.37,0.9-0.44,1.27-0.11c0.29,0.26,0.35,0.67,0.27,0.92c0.34-0.02,0.72-0.13,1.21-0.67c0.8-0.9,0.88-2.56-0.44-3.73
		s-2.98-0.93-3.77-0.02c-0.84,0.94-0.62,2.02-0.22,2.84l-0.75,0.39c-0.83-1.53-0.4-2.98,0.34-3.8
		C15.15,17.43,17.38,17.59,18.8,18.86z"/>
	<path class="st0" d="M10.52,24.75l-1.43,2.33l4.33,2.67l1.34-2.17l0.73,0.45l-1.86,3.01l-5.06-3.12l-1.44,2.33L6.4,29.8l3.39-5.5
		L10.52,24.75z M16.3,30.85c0.49,0.3,0.68,0.92,0.35,1.46c-0.33,0.54-0.97,0.65-1.46,0.35c-0.49-0.3-0.68-0.92-0.35-1.46
		C15.18,30.66,15.81,30.55,16.3,30.85z"/>
	<path class="st0" d="M8.02,34.12c1.94,0.76,2.89,2.7,2.18,4.51c-0.71,1.81-2.73,2.59-4.66,1.83c-1.93-0.76-2.89-2.7-2.18-4.51
		C4.07,34.14,6.08,33.36,8.02,34.12z M5.9,39.54c1.31,0.51,2.95,0.19,3.5-1.22c0.55-1.41-0.43-2.76-1.74-3.27s-2.95-0.19-3.5,1.22
		C3.61,37.68,4.59,39.02,5.9,39.54z M12.45,39.91c0.36,0.4,0.26,0.95-0.2,1.16c-0.47,0.22-0.95-0.1-1.07-0.59l-0.26-1.2l0.29-0.75
		L12.45,39.91z"/>
	<path class="st0" d="M2.46,41.73l-0.29,1.5l5,0.97l0.29-1.5l0.84,0.16l-0.48,2.47l-0.79-0.15c0.26,0.28,0.87,1.15,0.65,2.27
		c-0.28,1.42-1.41,2.06-3.16,1.72l-3.38-0.66l-0.29,1.5L0,49.85l0.73-3.74l0.84,0.16l-0.25,1.26l3.31,0.65
		c1.22,0.24,2.04-0.08,2.21-0.96c0.21-1.08-0.6-1.89-1.32-2.33L1.97,44.2l-0.25,1.26L0.89,45.3l0.73-3.74L2.46,41.73z"/>
</g>
</svg>
