<?xml version="1.0" encoding="utf-8"?>
<!-- Generator: Adobe Illustrator 23.0.1, SVG Export Plug-In . SVG Version: 6.00 Build 0)  -->
<svg version="1.1" id="Layer_1" xmlns="http://www.w3.org/2000/svg" xmlns:xlink="http://www.w3.org/1999/xlink" x="0px" y="0px"
	 viewBox="0 0 259.1 21.1" style="enable-background:new 0 0 259.1 21.1;" xml:space="preserve">
<style type="text/css">
	.st0{fill:#005844;}
	.st1{fill:#FF7C76;}
</style>
<g>
	<path class="st0" d="M1.2,13.3c0-3.6,2.6-7,6.6-7c3,0,5,1.9,5,3.7c0,1.3-0.8,2-1.7,2c-0.9,0-1.7-0.7-1.7-1.6c0-0.7,0.5-1.3,1-1.5
		C9.8,8.4,9.1,8,7.8,8c-2.3,0-4.7,2-4.7,5.3s2.4,5.4,4.7,5.4c2.4,0,3.6-1.7,4.3-3.3l1.5,0.6c-1.1,3.1-3.7,4.3-5.8,4.3
		C3.8,20.2,1.2,16.9,1.2,13.3z"/>
	<path class="st0" d="M18.4,13.3c0-3.9,2.8-7,6.4-7c3.7,0,6.4,3,6.4,7s-2.8,7-6.4,7C21.1,20.2,18.4,17.2,18.4,13.3z M29.4,13.3
		c0-2.7-1.7-5.3-4.6-5.3c-2.9,0-4.6,2.7-4.6,5.3s1.7,5.3,4.6,5.3C27.7,18.6,29.4,16,29.4,13.3z"/>
	<path class="st0" d="M36.1,13.3c0-3.6,2.6-7,6.6-7c3,0,5,1.9,5,3.7c0,1.3-0.8,2-1.7,2c-0.9,0-1.7-0.7-1.7-1.6c0-0.7,0.5-1.3,1-1.5
		C44.7,8.4,44.1,8,42.7,8c-2.3,0-4.7,2-4.7,5.3s2.4,5.4,4.7,5.4c2.4,0,3.6-1.7,4.3-3.3l1.5,0.6c-1.1,3.1-3.7,4.3-5.8,4.3
		C38.7,20.2,36.1,16.9,36.1,13.3z"/>
	<path class="st0" d="M53.6,18.1h5.2V8.5H54V6.9h6.7v11.2h5.2v1.6H53.6V18.1z M57.7,2.7c0-1.1,0.8-2,2-2c1.2,0,2,0.9,2,2s-0.8,2-2,2
		C58.5,4.7,57.7,3.8,57.7,2.7z"/>
	<path class="st0" d="M69.2,18.1h2.9V8.5h-2.9V6.9H74v1.5c0.4-0.6,1.8-2,4-2c2.7,0,4.3,1.9,4.3,5.3v6.5h2.9v1.6H78v-1.6h2.4v-6.4
		c0-2.4-0.9-3.8-2.6-3.8c-2.1,0-3.3,1.8-3.9,3.3v6.8h2.4v1.6h-7.2V18.1z"/>
	<path class="st0" d="M88.3,16.1c0-2.5,2-3.3,4.2-3.5c1.6-0.2,3.7-0.3,5.1-1.2v-0.7c0-1.3-0.7-2.7-3-2.7c-1.5,0-2.4,0.5-2.7,1
		c0.4,0.3,0.6,0.7,0.6,1.2c0,0.8-0.7,1.4-1.5,1.4c-1.3,0-1.7-1.1-1.7-1.9c0-1.6,2.1-3.3,5.3-3.3c4.2,0,4.9,2.6,4.9,4.7v4.6
		c0,2.1,1.3,2.7,2.8,3l-0.3,1.6c-1.2-0.1-3.2-0.4-4-2.2c-1.4,1.2-2.7,2.2-4.8,2.2C90.5,20.2,88.3,18.7,88.3,16.1z M97.6,16.2l0-3.2
		c-1.3,0.6-3,0.9-4.2,1c-1.6,0.2-3.2,0.4-3.2,2.1c0,1.5,1.1,2.5,3,2.5C94.9,18.6,96.7,17.9,97.6,16.2z"/>
	<path class="st0" d="M123.2,16.1c0-2.5,2-3.3,4.2-3.5c1.6-0.2,3.7-0.3,5.1-1.2v-0.7c0-1.3-0.7-2.7-3-2.7c-1.5,0-2.4,0.5-2.7,1
		c0.4,0.3,0.6,0.7,0.6,1.2c0,0.8-0.7,1.4-1.5,1.4c-1.3,0-1.7-1.1-1.7-1.9c0-1.6,2.1-3.3,5.3-3.3c4.2,0,4.9,2.6,4.9,4.7v4.6
		c0,2.1,1.3,2.7,2.8,3l-0.3,1.6c-1.2-0.1-3.2-0.4-4-2.2c-1.4,1.2-2.7,2.2-4.8,2.2C125.4,20.2,123.2,18.7,123.2,16.1z M132.5,16.2
		l0-3.2c-1.3,0.6-3,0.9-4.2,1c-1.6,0.2-3.2,0.4-3.2,2.1c0,1.5,1.1,2.5,3,2.5C129.8,18.6,131.6,17.9,132.5,16.2z"/>
	<path class="st0" d="M140.7,18.1h5.4V3.6h-5V1.9h6.9v16.2h5.4v1.6h-12.7V18.1z"/>
	<path class="st0" d="M175.7,18.1h4.5V8.5h-3.2V6.9h3.2V6.4c0-3.8,2.4-4.9,4.7-4.9c2.3,0,4.1,1.5,4.1,3.3c0,1.2-0.7,1.9-1.6,1.9
		c-0.9,0-1.5-0.7-1.5-1.3c0-0.7,0.4-1.1,0.9-1.3c-0.2-0.4-0.9-0.9-2-0.9c-1.9,0.1-2.7,1.3-2.7,3v0.8h3.1v1.6H182v9.6h4.5v1.6h-10.9
		V18.1z"/>
	<path class="st0" d="M193,13.3c0-3.9,2.8-7,6.4-7c3.7,0,6.4,3,6.4,7s-2.8,7-6.4,7C195.8,20.2,193,17.2,193,13.3z M204,13.3
		c0-2.7-1.7-5.3-4.6-5.3c-2.9,0-4.6,2.7-4.6,5.3s1.7,5.3,4.6,5.3C202.3,18.6,204,16,204,13.3z"/>
	<path class="st0" d="M208.9,18.1h2.9V8.5h-2.9V6.9h4.8v1.5c0.4-0.6,1.8-2,4-2c2.7,0,4.3,1.9,4.3,5.3v6.5h2.9v1.6h-7.2v-1.6h2.4
		v-6.4c0-2.4-0.9-3.8-2.6-3.8c-2.1,0-3.3,1.8-3.9,3.3v6.8h2.4v1.6h-7.2V18.1z"/>
	<path class="st0" d="M227.3,13.3c0-4.5,3-6.7,5.9-6.7c1.8,0,2.9,0.6,3.9,1.9V3.6H233V1.9h6v16.2h3.4v1.6h-5.3V18
		c-0.5,1.1-2,2.2-4,2.2C229.9,20.2,227.3,17.5,227.3,13.3z M237.1,15.6v-4.1c-0.5-1.6-1.7-3.2-3.7-3.2c-2.7,0-4.2,2.6-4.2,5.1
		c0,2.7,1.1,4.8,3.4,5.2C234.3,18.9,236.2,18,237.1,15.6z"/>
	<path class="st0" d="M245.4,13.3c0-3.9,2.8-7,6.4-7c3.7,0,6.4,3,6.4,7s-2.8,7-6.4,7C248.2,20.2,245.4,17.2,245.4,13.3z M256.4,13.3
		c0-2.7-1.7-5.3-4.6-5.3c-2.9,0-4.6,2.7-4.6,5.3s1.7,5.3,4.6,5.3C254.7,18.6,256.4,16,256.4,13.3z"/>
</g>
</svg>
