<?xml version="1.0" encoding="utf-8"?>
<!-- Generator: Adobe Illustrator 23.0.1, SVG Export Plug-In . SVG Version: 6.00 Build 0)  -->
<svg version="1.1" id="Layer_1" xmlns="http://www.w3.org/2000/svg" xmlns:xlink="http://www.w3.org/1999/xlink" x="0px" y="0px"
	 viewBox="0 0 255.9 257" style="enable-background:new 0 0 255.9 257;" xml:space="preserve">
<style type="text/css">
	.st0{fill:#005844;}
	.st1{fill:#FF7C76;}
</style>
<g>
	<g>
		<path class="st1" d="M14.6,147.3c1.7-0.3,3.5,0.9,3.8,2.6c0.3,1.7-0.9,3.5-2.6,3.8c-1.7,0.3-3.5-0.9-3.8-2.6
			C11.7,149.4,12.9,147.6,14.6,147.3z"/>
		<path class="st1" d="M19,186.8l3.2,5.2l9.6-5.9l-3-4.8l1.6-1l4.1,6.7l-11.2,6.9l3.2,5.2l-1.6,1l-7.5-12.2L19,186.8z M36.9,181.4
			c1.1-0.7,2.5-0.4,3.2,0.8s0.3,2.6-0.8,3.2c-1.1,0.7-2.5,0.4-3.2-0.8S35.8,182.1,36.9,181.4z"/>
		<path class="st1" d="M29.6,203.4l2.3,2.5l8.4-7.5l-2.3-2.5l1.4-1.3l3.7,4.2l-1.3,1.2c0.8-0.1,3.2,0,4.9,1.9
			c2.1,2.4,1.8,5.3-1.2,7.9l-5.7,5.1l2.3,2.5l-1.4,1.3l-5.6-6.3l1.4-1.3l1.9,2.1l5.6-5c2.1-1.8,2.6-3.7,1.3-5.2
			c-1.6-1.8-4.1-1.5-5.9-0.8l-6,5.3l1.9,2.1l-1.4,1.3l-5.6-6.3L29.6,203.4z"/>
		<path class="st1" d="M51.4,221.1l5-6.4l-3.8-3l1.2-1.5l3.8,3l3.6-4.6l1.7,1.4l-3.6,4.6l6.8,5.3l-1.2,1.5l-6.8-5.3l-5,6.4
			c-1.4,1.8-1.6,3.5-0.1,4.7c2.2,1.7,4.6-0.1,6.4-2l1.5,1.3c-3,3.6-6.2,4.4-9,2.2C49.3,226.6,49.2,224,51.4,221.1z"/>
		<path class="st1" d="M66.7,231.3l3.6-6.8l-3-1.6l0.9-1.7l4.9,2.6l-4.4,8.3c-1.3,2.4-1.1,4.4,0.6,5.3c2.2,1.1,5.6-1,6.8-3.2
			l2.8-5.3l-2.5-1.3l0.9-1.7l4.5,2.4l-6.1,11.7l3,1.6l-0.9,1.7l-4.9-2.6l1.1-2.1c-0.8,0.4-3.3,1.6-5.5,0.5
			C65.5,237.7,64.9,234.8,66.7,231.3z"/>
		<path class="st1" d="M83.8,243.7l5.8,1.8l3.4-10.8l-5.4-1.7l0.6-1.8l7.5,2.4l-3.9,12.6l5.8,1.8l-0.6,1.8l-13.7-4.3L83.8,243.7z
			 M93.8,227.9c0.4-1.2,1.6-2,3-1.5c1.3,0.4,1.9,1.7,1.5,3c-0.4,1.2-1.6,2-3,1.5C94,230.5,93.4,229.1,93.8,227.9z"/>
		<path class="st1" d="M105.5,244c0.5-4.2,4-7.7,8.7-7.1c3.4,0.4,5.5,3,5.2,5c-0.2,1.5-1.2,2.2-2.3,2.1c-1.1-0.1-1.9-1.1-1.8-2.2
			c0.1-0.9,0.8-1.5,1.4-1.7c-0.5-0.6-1.1-1.2-2.7-1.4c-2.7-0.3-5.8,1.6-6.3,5.5c-0.5,3.9,2,6.6,4.7,6.9c2.8,0.4,4.5-1.4,5.5-3.2
			l1.7,0.9c-1.8,3.4-4.9,4.5-7.4,4.2C107.5,252.4,105,248.2,105.5,244z"/>
		<path class="st1" d="M126.9,251.7l6.1-0.3l-0.6-11.3l-5.6,0.3l-0.1-1.9l7.8-0.4l0.7,13.2l6.1-0.3l0.1,1.9l-14.3,0.7L126.9,251.7z
			 M130.7,233.4c-0.1-1.3,0.8-2.4,2.2-2.5c1.4-0.1,2.4,1,2.5,2.2c0.1,1.3-0.8,2.4-2.2,2.5C131.8,235.7,130.8,234.7,130.7,233.4z"/>
		<path class="st1" d="M147.1,244.5c-1-4.5,1.3-8.7,5.5-9.7c4.2-1,8.2,1.7,9.2,6.2c1,4.5-1.3,8.7-5.5,9.7
			C152.1,251.7,148.1,249,147.1,244.5z M159.6,241.5c-0.7-3-3.4-5.6-6.6-4.9c-3.3,0.8-4.5,4.3-3.8,7.3c0.7,3,3.4,5.6,6.6,4.9
			C159.1,248,160.4,244.6,159.6,241.5z M152.1,229.1c0.3-1.2,1.4-1.7,2.4-1.1c1,0.6,1,1.9,0.3,2.7l-1.9,2l-1.7,0.4L152.1,229.1z"/>
		<path class="st1" d="M168,245.1l3.1-1.4l-4.5-10.4l-3.1,1.4l-0.8-1.8l5.1-2.2l0.7,1.6c0.2-0.8,1-3,3.3-4c3-1.3,5.5,0,7.1,3.6l3,7
			l3.1-1.4l0.8,1.8l-7.7,3.4l-0.8-1.8l2.6-1.1l-3-6.9c-1.1-2.5-2.7-3.6-4.5-2.8c-2.2,1-2.7,3.5-2.6,5.3l3.2,7.4l2.6-1.1l0.8,1.8
			l-7.7,3.4L168,245.1z"/>
		<path class="st1" d="M204.6,213.2c-1.2-1.3-1.2-3.4,0.1-4.6c1.3-1.2,3.4-1.2,4.6,0.1c1.2,1.3,1.2,3.4-0.1,4.6
			C208,214.5,205.8,214.5,204.6,213.2z"/>
		<path class="st1" d="M240.1,193.1l1.8-3.8l-15.9-7.6l-1.7,3.5l-1.7-0.8l2.6-5.5l1.7,0.8c-0.8-1.6-1.1-3.5-0.2-5.4
			c1.6-3.4,5.8-4.6,10.3-2.5c4.9,2.4,5.7,6.8,4.2,9.8c-0.8,1.8-2.7,3-4.2,3l5.7,2.7l2-4.3l1.7,0.8l-4.8,10.1L240.1,193.1z
			 M236.1,173.7c-2.8-1.4-6.4-1-7.7,1.6c-1,2.1,0,4.2,1.6,5.8l4.3,2.1c1.9,0.2,4.3-0.3,5.4-2.4C240.9,178,238.8,175,236.1,173.7z"/>
		<path class="st1" d="M244,169l1.3-4.8l-10.9-3l-1.2,4.3l-1.8-0.5l1.8-6.5l1.9,0.5c-1.3-1.8-1.6-3.5-1.1-5.4
			c0.8-2.8,3.3-4.2,5.6-3.6c1.6,0.4,2.1,1.7,1.8,2.8c-0.3,1-1.3,1.6-2.4,1.3c-0.9-0.2-1.4-1-1.5-1.7c-0.8,0.2-1.4,0.6-1.7,1.7
			c-0.7,2.4,1.2,4.7,2.2,5.6l8,2.2l1.5-5.4l1.8,0.5l-3.4,12.3L244,169z"/>
		<path class="st1" d="M243.8,146.5c-4.6-0.4-7.8-3.9-7.5-8.3c0.4-4.3,4.2-7.2,8.8-6.8c4.6,0.4,7.8,3.9,7.5,8.3
			C252.2,144,248.4,146.9,243.8,146.5z M244.9,133.6c-3.1-0.3-6.4,1.4-6.7,4.8c-0.3,3.4,2.6,5.6,5.7,5.9c3.1,0.3,6.4-1.4,6.7-4.8
			C251,136.2,248.1,133.9,244.9,133.6z"/>
		<path class="st1" d="M245.2,126.3c-5.2,0.5-8.1-2.8-8.4-6.1c-0.2-2,0.4-3.5,1.8-4.8l-5.7,0.5l0.4,4.8l-1.9,0.2l-0.6-7l18.9-1.7
			l-0.4-4l1.9-0.2l0.6,6.2l-2,0.2c1.3,0.5,2.8,2.1,3,4.4C253,122.5,250.2,125.8,245.2,126.3z M246.9,114.6l-4.8,0.4
			c-1.9,0.8-3.6,2.4-3.4,4.7c0.3,3.2,3.5,4.6,6.5,4.3c3.1-0.3,5.5-1.8,5.7-4.5C251,117.4,249.8,115.4,246.9,114.6z"/>
		<path class="st1" d="M244.3,102.6l-7.4,2l0.9,3.3l-1.8,0.5l-1.5-5.4l9.1-2.5c2.7-0.7,4-2.2,3.4-4.1c-0.6-2.4-4.5-3.4-6.9-2.8
			l-5.7,1.6l0.8,2.8l-1.8,0.5l-1.3-4.9l12.7-3.5l-0.9-3.3l1.8-0.5l1.5,5.4l-2.3,0.6c0.8,0.3,3.4,1.3,4.1,3.7
			C249.7,99.2,248.1,101.6,244.3,102.6z"/>
		<path class="st1" d="M236.6,84.3c-3.8,1.8-8.7,0.8-10.7-3.4c-1.5-3.1-0.5-6.2,1.4-7.1c1.3-0.6,2.5-0.2,3,0.8
			c0.5,1,0.1,2.2-0.8,2.7c-0.8,0.4-1.7,0.2-2.1-0.2c-0.2,0.7-0.4,1.6,0.3,3c1.2,2.4,4.5,4,8,2.3c3.5-1.7,4.4-5.3,3.3-7.7
			c-1.2-2.5-3.6-3-5.6-2.9l-0.2-1.9c3.8-0.4,6.4,1.7,7.5,3.9C242.6,78,240.4,82.5,236.6,84.3z"/>
		<path class="st1" d="M226.6,60.8l-6.6,4.8l2.8,3.9l-1.5,1.1l-2.8-3.9l-4.7,3.4l-1.3-1.8l4.7-3.4l-5.1-7l1.5-1.1l5.1,7l6.6-4.8
			c1.9-1.4,2.5-2.9,1.4-4.4c-1.6-2.3-4.4-1.2-6.7,0.2l-1.1-1.7c3.9-2.6,7.1-2.5,9.3,0.4C230.1,56,229.5,58.7,226.6,60.8z"/>
		<path class="st1" d="M214.4,49.2c-3.2,3.3-8,3.6-11.1,0.6c-3.1-3-3-7.8,0.2-11.1c3.2-3.3,8-3.6,11.1-0.6
			C217.8,41.1,217.6,45.9,214.4,49.2z M205.2,40.2c-2.2,2.2-2.9,5.9-0.5,8.2c2.4,2.3,6,1.5,8.2-0.8c2.2-2.2,2.9-5.9,0.5-8.2
			C210.9,37.1,207.3,38,205.2,40.2z"/>
		<path class="st1" d="M176.2,24.7c-0.7,1.6-2.7,2.4-4.3,1.7c-1.6-0.7-2.4-2.7-1.7-4.3c0.7-1.6,2.7-2.4,4.3-1.7
			C176.1,21.1,176.9,23.1,176.2,24.7z"/>
		<path class="st1" d="M136.9,8.9l-0.4,8.1l4.8,0.2l-0.1,1.9l-4.8-0.2l-0.3,5.8l-2.2-0.1l0.3-5.8l-8.6-0.4l0.1-1.9l8.6,0.4l0.4-8.1
			c0.1-2.4-0.7-3.8-2.6-3.9c-2.8-0.1-3.8,2.7-4.1,5.3l-2-0.2c0.4-4.7,2.5-7.2,6.1-7C135.4,3.2,137.1,5.3,136.9,8.9z"/>
		<path class="st1" d="M120.2,5.4L115.3,6l1.4,11.2l4.5-0.6l0.2,1.9l-6.6,0.8l-0.2-1.9c-1.2,1.9-2.6,2.8-4.5,3.1
			c-2.8,0.4-5.1-1.4-5.4-3.8c-0.2-1.6,0.8-2.6,1.9-2.7c1-0.1,2,0.6,2.1,1.7c0.1,1-0.4,1.7-1,2c0.5,0.7,1.1,1.1,2.2,1
			c2.5-0.3,3.9-2.9,4.3-4.2l-1-8.2L107.5,7l-0.2-1.9l12.7-1.6L120.2,5.4z"/>
		<path class="st1" d="M98.4,11.2c0.9,2.8-1,4.4-3.4,5.4c-1.7,0.7-4,1.6-5.3,3.1l0.2,0.8c0.5,1.5,1.8,2.8,4.3,2
			c1.6-0.5,2.5-1.4,2.7-2c-0.6-0.1-0.9-0.6-1.1-1.1c-0.3-0.9,0.3-1.8,1.2-2c1.5-0.5,2.3,0.6,2.6,1.5c0.6,1.8-1.2,4.4-4.8,5.5
			c-4.7,1.5-6.4-1.2-7.2-3.6L86,15.6c-0.8-2.4-2.4-2.6-4.2-2.3l-0.3-2c1.3-0.3,3.7-0.7,5.2,1c1.1-1.8,2.2-3.4,4.6-4.1
			C94.5,7.3,97.5,8.2,98.4,11.2z M87.9,14.3l1.2,3.5c1.2-1.1,3-2,4.3-2.6c1.7-0.8,3.4-1.6,2.8-3.5c-0.5-1.7-2.2-2.4-4.2-1.7
			C90.2,10.6,88.4,12.1,87.9,14.3z"/>
		<path class="st1" d="M80.3,20.7c2.4,4.7,0.5,8.6-2.4,10.1c-1.8,1-3.4,0.9-5.1,0.2l2.7,5.1l4.2-2.2l0.9,1.7l-6.2,3.3l-8.8-16.8
			L62,24l-0.9-1.7l5.5-2.9l0.9,1.8c-0.1-1.4,0.9-3.4,2.9-4.5C73.9,14.9,78,16.3,80.3,20.7z M68.9,23.7l2.2,4.3
			c1.4,1.4,3.6,2.4,5.6,1.3c2.8-1.5,2.9-5,1.5-7.6c-1.5-2.8-3.8-4.4-6.4-3.6C70,18.7,68.6,20.6,68.9,23.7z"/>
		<path class="st1" d="M57.6,27.1l-4.8,3.7l6.9,8.9l4.5-3.5l1.2,1.5l-6.2,4.8l-8.1-10.4l-4.8,3.7l-1.2-1.5l11.3-8.8L57.6,27.1z
			 M64.9,44.2c0.8,1,0.7,2.4-0.4,3.3c-1.1,0.9-2.5,0.6-3.3-0.4c-0.8-1-0.7-2.4,0.4-3.3C62.7,43,64.1,43.2,64.9,44.2z"/>
		<path class="st1" d="M44.9,44.9c3.2,2.8,4.1,7.7,0.9,11.2c-2.3,2.6-5.5,2.9-7.1,1.5c-1.1-1-1.1-2.2-0.4-3.1c0.7-0.8,2-1,2.8-0.2
			c0.6,0.6,0.8,1.5,0.6,2c0.8,0,1.6-0.3,2.7-1.5c1.8-2,2-5.7-1-8.3c-2.9-2.6-6.6-2.1-8.4,0c-1.9,2.1-1.4,4.5-0.5,6.3l-1.7,0.9
			c-1.8-3.4-0.9-6.6,0.8-8.4C36.8,41.7,41.8,42.1,44.9,44.9z"/>
		<path class="st1" d="M26.5,58l-3.2,5.2L33,69l3-4.8l1.6,1l-4.1,6.7L22.2,65L19,70.2l-1.6-1L24.9,57L26.5,58z M39.4,71.5
			c1.1,0.7,1.5,2,0.8,3.2s-2.2,1.4-3.2,0.8c-1.1-0.7-1.5-2-0.8-3.2C36.9,71.1,38.3,70.8,39.4,71.5z"/>
		<path class="st1" d="M21,78.7c4.3,1.7,6.4,6,4.8,10c-1.6,4-6.1,5.7-10.3,4.1c-4.3-1.7-6.4-6-4.8-10C12.2,78.8,16.7,77.1,21,78.7z
			 M16.3,90.8c2.9,1.1,6.5,0.4,7.8-2.7c1.2-3.1-1-6.1-3.9-7.3c-2.9-1.1-6.5-0.4-7.8,2.7S13.4,89.6,16.3,90.8z M30.8,91.6
			c0.8,0.9,0.6,2.1-0.4,2.6c-1,0.5-2.1-0.2-2.4-1.3l-0.6-2.7l0.6-1.7L30.8,91.6z"/>
		<path class="st1" d="M8.6,95.6L8,99l11.1,2.2l0.6-3.3l1.9,0.4l-1.1,5.5l-1.8-0.3c0.6,0.6,1.9,2.6,1.4,5c-0.6,3.2-3.1,4.6-7,3.8
			l-7.5-1.5L5.1,114l-1.9-0.4l1.6-8.3l1.9,0.4l-0.6,2.8l7.3,1.4c2.7,0.5,4.5-0.2,4.9-2.1c0.5-2.4-1.3-4.2-2.9-5.2l-7.9-1.5L7,103.9
			l-1.8-0.4l1.6-8.3L8.6,95.6z"/>
	</g>
	<g>
		<path class="st1" d="M128,175.5c-10.9,0-21.1-4.2-28.8-11.9c-0.6-0.6-0.6-1.5,0-2.1c0.6-0.6,1.5-0.6,2.1,0
			c7.1,7.1,16.6,11.1,26.7,11.1s19.6-3.9,26.7-11.1c0.6-0.6,1.5-0.6,2.1,0c0.6,0.6,0.6,1.5,0,2.1C149.1,171.3,138.9,175.5,128,175.5
			z"/>
		<path class="st1" d="M171.7,115.6c-0.1-0.5-0.5-0.9-1-1c-8.7-2.3-17.9,0.2-24.2,6.5c-6.1,6.1-8.6,15-6.7,23.4l-10.4,10.4v-30.6
			c7.3-4.6,11.8-12.6,11.8-21.2c0-8.9-4.8-17.2-12.5-21.7c-0.5-0.3-1-0.3-1.5,0c-7.7,4.5-12.5,12.8-12.5,21.7
			c0,8.6,4.5,16.6,11.8,21.2v30.6l-10.4-10.4c1.9-8.4-0.6-17.3-6.7-23.4c-6.3-6.3-15.6-8.8-24.2-6.5c-0.5,0.1-0.9,0.5-1,1
			c-2.3,8.6,0.2,17.9,6.5,24.2c4.7,4.7,11.2,7.3,17.8,7.3c1.9,0,3.7-0.2,5.6-0.7l12.4,12.4v9.3h3V159l12.4-12.4
			c1.9,0.4,3.7,0.7,5.6,0.7c6.6,0,13-2.6,17.8-7.3C171.6,133.6,174,124.3,171.7,115.6z M117.6,103c0-7.6,3.9-14.7,10.3-18.7
			c6.4,4,10.3,11.1,10.3,18.7c0,7-3.4,13.5-8.9,17.6V103c0-0.8-0.7-1.5-1.5-1.5s-1.5,0.7-1.5,1.5v17.6
			C121,116.5,117.6,110,117.6,103z M92.8,137.8c-5.4-5.4-7.6-13.2-5.9-20.5c7.4-1.6,15.2,0.6,20.5,5.9c4.9,4.9,7.2,11.9,6.2,18.7
			l-12.5-12.5c-0.6-0.6-1.5-0.6-2.1,0c-0.6,0.6-0.6,1.5,0,2.1l12.5,12.5C104.7,145,97.7,142.7,92.8,137.8z M163.2,137.8
			c-4.9,4.9-11.9,7.2-18.7,6.2l12.5-12.5c0.6-0.6,0.6-1.5,0-2.1c-0.6-0.6-1.5-0.6-2.1,0l-12.5,12.5c-1-6.8,1.3-13.8,6.2-18.7
			c5.4-5.4,13.1-7.6,20.5-5.9C170.7,124.6,168.5,132.4,163.2,137.8z"/>
	</g>
</g>
</svg>
