<?xml version="1.0" encoding="utf-8"?>
<!-- Generator: Adobe Illustrator 23.0.1, SVG Export Plug-In . SVG Version: 6.00 Build 0)  -->
<svg version="1.1" id="Layer_1" xmlns="http://www.w3.org/2000/svg" xmlns:xlink="http://www.w3.org/1999/xlink" x="0px" y="0px"
	 viewBox="0 0 18 18" style="enable-background:new 0 0 18 18;" xml:space="preserve">
<style type="text/css">
	.st0{enable-background:new    ;}
	.st1{fill:#005844;}
	.st2{fill:none;}
	.st3{fill:none;stroke:#005844;}
</style>
<g id="Group_26" transform="translate(-81 -715)">
	<g id="Group_25" transform="translate(0 651)">
		<g id="Group_23" transform="translate(-415.324 -661)">
			<g class="st0">
				<path class="st1" d="M501.7,737.9h2.5v-5.3h-1.8v-0.9h1.8v-0.3c0-2.1,1.3-2.7,2.6-2.7c1.3,0,2.3,0.8,2.3,1.8c0,0.7-0.4,1-0.9,1
					s-0.8-0.4-0.8-0.7s0.2-0.6,0.5-0.7c-0.1-0.2-0.5-0.5-1.1-0.5c-1,0.1-1.5,0.7-1.5,1.7v0.4h1.7v0.9h-1.7v5.3h2.5v0.9h-6V737.9z"/>
			</g>
		</g>
		<g id="Ellipse_1" transform="translate(81 64)">
			<circle class="st2" cx="9" cy="9" r="9"/>
			<circle class="st3" cx="9" cy="9" r="8.5"/>
		</g>
	</g>
</g>
</svg>
